<svg width="310" height="285" viewBox="0 0 310 285" fill="none" xmlns="http://www.w3.org/2000/svg">
<path d="M310 126.216C310 163.66 299.901 205.966 268.065 229.405C230.486 257.066 189.221 238.824 147.073 243.502C108.991 247.724 75.0073 269.075 52.6307 244.081C38.3121 228.064 45.3952 205.677 38.6777 192.037C26.8267 167.973 3.64278 154.821 0.596265 125.942C-4.70466 76.3663 26.0803 73.3335 63.461 57.7126C94.703 44.6673 124.041 9.28024 156.288 2.849C251.019 -16.1704 310 63.9762 310 126.216Z" fill="url(#paint0_linear)"/>
<g opacity="0.4" filter="url(#filter0_d)">
<ellipse cx="172.672" cy="162.233" rx="115.672" ry="114.229" fill="#3FD3D0"/>
</g>
<g filter="url(#filter1_d)">
<ellipse cx="167.028" cy="154.655" rx="110.028" ry="108.655" fill="white"/>
</g>
<path d="M152.723 170.74C152.51 172.324 151.498 173.116 149.954 172.8C148.569 172.535 148.09 171.321 148.09 169.948C148.09 164.244 148.09 158.541 148.09 152.837C148.09 151.569 148.303 150.302 149.901 150.038C151.285 149.774 152.297 150.302 152.67 151.781C152.457 158.065 152.404 164.403 152.723 170.74Z" fill="#03295F"/>
<path d="M201.186 172.853C199.588 175.124 198.789 175.071 197.191 172.853C197.404 166.727 197.404 160.548 197.191 154.422C198.789 152.151 199.588 152.151 201.186 154.422C200.866 160.548 200.919 166.674 201.186 172.853Z" fill="#00285F"/>
<path d="M150.486 146.288C148.408 146.077 147.184 144.915 147.024 142.908C146.864 141.007 148.622 139.423 150.645 139.528C152.776 139.634 153.894 140.954 153.894 142.961C153.841 144.968 152.456 146.024 150.486 146.288Z" fill="#31E5C7"/>
<path d="M202.412 146.076C202.198 147.925 201.346 149.14 199.269 149.192C197.192 149.245 196.021 148.136 195.967 146.235C195.861 144.281 197.086 143.066 199.056 143.013C200.974 142.961 202.145 144.122 202.412 146.076Z" fill="#30E5C7"/>
<path d="M152.723 170.739C151.817 169.102 152.297 167.307 152.35 165.617C152.456 161.022 151.817 156.375 152.723 151.78C152.669 158.065 152.723 164.402 152.723 170.739Z" fill="#000853"/>
<path d="M197.138 154.369C197.99 156.904 197.511 159.545 197.511 162.132C197.458 165.671 198.043 169.262 197.191 172.8C196.925 166.674 196.925 160.548 197.138 154.369Z" fill="#010250"/>
<path d="M201.188 172.852C200.229 168.997 200.868 165.036 200.815 161.128C200.762 158.91 200.282 156.586 201.188 154.421C201.188 160.547 201.188 166.673 201.188 172.852Z" fill="#000050"/>
<path d="M187.179 164.561C189.683 158.911 188.138 153.418 183.824 148.348C184.836 148.296 185.262 148.243 185.688 148.296C187.179 148.401 188.245 147.715 188.245 146.289C188.245 144.652 187.02 144.124 185.528 144.124C180.842 144.176 176.102 143.912 171.415 144.282C164.865 144.81 160.391 148.454 158.314 154.58C156.29 160.601 157.728 166.146 162.521 170.423C167.421 174.807 173.173 175.705 179.297 173.064C182.386 171.744 182.919 171.955 183.611 175.335C183.877 176.55 184.09 177.711 183.931 178.979C183.132 184.26 178.978 188.379 173.972 188.696C168.326 189.066 163.906 186.003 162.255 180.458C161.776 178.926 161.296 177.447 159.272 178.081C157.408 178.609 157.728 180.088 158.048 181.514C159.965 189.805 169.019 194.875 177.433 192.34C185.741 189.858 190.641 180.405 187.233 172.536C185.954 169.631 185.848 167.572 187.179 164.561ZM173.013 170.159C166.995 170.212 161.989 165.301 161.882 159.386C161.829 153.418 166.675 148.401 172.693 148.348C178.818 148.243 183.984 153.26 183.984 159.28C184.037 165.09 178.978 170.107 173.013 170.159Z" fill="#00275E"/>
<path d="M137.651 132.608C137.651 131.446 137.278 130.443 136.107 130.126C134.775 129.757 133.657 130.179 133.231 131.658C133.817 136.041 134.03 140.424 133.124 144.861C132.112 145.177 131.793 144.227 131.26 143.804C125.189 139.421 116.774 139.527 111.076 144.174C105.111 149.033 103.3 157.113 106.709 163.925C110.01 170.527 117.467 174.012 124.923 172.428C127.905 171.794 130.461 170.263 133.018 168.15C133.018 168.995 133.018 169.523 133.018 169.999C132.964 171.636 133.657 172.85 135.414 172.798C137.065 172.745 137.598 171.53 137.598 170.051C137.651 157.588 137.651 145.125 137.651 132.608ZM121.301 168.256C114.857 168.256 109.691 163.186 109.691 156.743C109.691 150.353 114.857 145.125 121.248 145.072C127.745 145.019 133.124 150.353 133.071 156.796C133.071 163.186 127.852 168.256 121.301 168.256Z" fill="#01285F"/>
<path d="M224.938 144.07C216.63 143.859 209.493 150.461 209.28 158.699C209.067 167.096 215.671 174.173 224.139 174.49C232.66 174.806 239.744 168.152 240.063 159.544C240.33 151.253 233.513 144.282 224.938 144.07ZM224.619 170.159C218.6 170.159 213.648 165.248 213.594 159.28C213.541 153.365 218.494 148.401 224.565 148.295C230.583 148.19 235.856 153.418 235.749 159.333C235.643 165.3 230.637 170.159 224.619 170.159Z" fill="#00275E"/>
<defs>
<filter id="filter0_d" x="53" y="48.0039" width="239.343" height="236.458" filterUnits="userSpaceOnUse" color-interpolation-filters="sRGB">
<feFlood flood-opacity="0" result="BackgroundImageFix"/>
<feColorMatrix in="SourceAlpha" type="matrix" values="0 0 0 0 0 0 0 0 0 0 0 0 0 0 0 0 0 0 127 0"/>
<feOffset dy="4"/>
<feGaussianBlur stdDeviation="2"/>
<feColorMatrix type="matrix" values="0 0 0 0 0.344531 0 0 0 0 0.6125 0 0 0 0 0.594635 0 0 0 0.07 0"/>
<feBlend mode="normal" in2="BackgroundImageFix" result="effect1_dropShadow"/>
<feBlend mode="normal" in="SourceGraphic" in2="effect1_dropShadow" result="shape"/>
</filter>
<filter id="filter1_d" x="53" y="46" width="228.055" height="225.311" filterUnits="userSpaceOnUse" color-interpolation-filters="sRGB">
<feFlood flood-opacity="0" result="BackgroundImageFix"/>
<feColorMatrix in="SourceAlpha" type="matrix" values="0 0 0 0 0 0 0 0 0 0 0 0 0 0 0 0 0 0 127 0"/>
<feOffset dy="4"/>
<feGaussianBlur stdDeviation="2"/>
<feColorMatrix type="matrix" values="0 0 0 0 0.344531 0 0 0 0 0.6125 0 0 0 0 0.594635 0 0 0 0.07 0"/>
<feBlend mode="normal" in2="BackgroundImageFix" result="effect1_dropShadow"/>
<feBlend mode="normal" in="SourceGraphic" in2="effect1_dropShadow" result="shape"/>
</filter>
<linearGradient id="paint0_linear" x1="23.25" y1="457.878" x2="478.754" y2="262.235" gradientUnits="userSpaceOnUse">
<stop offset="0.20201" stop-color="#5CDBCF" stop-opacity="0.90721"/>
<stop offset="0.954551" stop-color="#DBFFCC"/>
</linearGradient>
</defs>
</svg>
